HIERARCHY
ROOT hip
{
	OFFSET	0.00  0.00  0.00 
	CHANNELS 6 Xposition Yposition Zposition Xrotation Zrotation Yrotation
	JOINT waist
	{
		OFFSET	0.000000 2.191865 -0.079388
		CHANNELS 3 Xrotation Zrotation Yrotation
		JOINT abdomen
		{
			OFFSET	0.000000 2.770984 0.119082
			CHANNELS 3 Xrotation Zrotation Yrotation
			JOINT chest
			{
				OFFSET	0.000000 2.879627 -0.290598
				CHANNELS 3 Xrotation Zrotation Yrotation
				JOINT neck
				{
					OFFSET	0.000000 12.342733 -1.613748
					CHANNELS 3 Xrotation Zrotation Yrotation
					JOINT head
					{
						OFFSET	0.000000 4.485597 1.807195
						CHANNELS 3 Xrotation Zrotation Yrotation
						End Site
						{
							OFFSET 0.000000 7.191734 2.024398
						}
					}
				}
				JOINT lCollar
				{
					OFFSET	1.858774 10.237258 -1.915852
					CHANNELS 3 Zrotation Yrotation Xrotation
					JOINT lShldr
					{
						OFFSET	6.103279 0.000102 -0.038601
						CHANNELS 3 Zrotation Yrotation Xrotation
						JOINT lForeArm
						{
							OFFSET	10.574100 -0.365985 -0.655940
							CHANNELS 3 Zrotation Yrotation Xrotation
							JOINT lHand
							{
								OFFSET	13.213392 -0.641131 0.276866
								CHANNELS 3 Zrotation Yrotation Xrotation
								JOINT lThumb1
								{
									OFFSET	1.920964 -1.225712 1.722395
									CHANNELS 3 Zrotation Yrotation Xrotation
									JOINT lThumb2
									{
										OFFSET	0.248544 -0.143036 0.768265
										CHANNELS 3 Zrotation Yrotation Xrotation
										JOINT lThumb3
										{
											OFFSET	0.628484 -0.225174 0.508305
											CHANNELS 3 Zrotation Yrotation Xrotation
											End Site
											{
												OFFSET 0.831712 -0.207978 0.609962
											}
										}
									}
								}
								JOINT lIndex1
								{
									OFFSET	5.093442 -0.710319 1.829884
									CHANNELS 3 Zrotation Yrotation Xrotation
									JOINT lIndex2
									{
										OFFSET	0.889470 -0.051998 0.127073
										CHANNELS 3 Zrotation Yrotation Xrotation
										JOINT lIndex3
										{
											OFFSET	0.889570 -0.155981 0.127073
											CHANNELS 3 Zrotation Yrotation Xrotation
											End Site
											{
												OFFSET 0.797115 -0.294470 0.076252
											}
										}
									}
								}
								JOINT lMid1
								{
									OFFSET	5.154641 -0.519844 0.864111
									CHANNELS 3 Zrotation Yrotation Xrotation
									JOINT lMid2
									{
										OFFSET	0.928821 -0.051992 0.050831
										CHANNELS 3 Zrotation Yrotation Xrotation
										JOINT lMid3
										{
											OFFSET	0.984253 -0.311865 0.050831
											CHANNELS 3 Zrotation Yrotation Xrotation
											End Site
											{
												OFFSET 0.779717 -0.606438 -0.050831
											}
										}
									}
								}
								JOINT lRing1
								{
									OFFSET	4.924408 -0.754930 -0.235503
									CHANNELS 3 Zrotation Yrotation Xrotation
									JOINT lRing2
									{
										OFFSET	0.981624 -0.036924 -0.108278
										CHANNELS 3 Zrotation Yrotation Xrotation
										JOINT lRing3
										{
											OFFSET	0.805613 -0.205247 -0.041717
											CHANNELS 3 Zrotation Yrotation Xrotation
											End Site
											{
												OFFSET 0.667431 -0.470481 -0.035991
											}
										}
									}
								}
								JOINT lPinky1
								{
									OFFSET	4.535460 -0.816635 -1.006206
									CHANNELS 3 Zrotation Yrotation Xrotation
									JOINT lPinky2
									{
										OFFSET	0.690596 -0.064334 -0.168800
										CHANNELS 3 Zrotation Yrotation Xrotation
										JOINT lPinky3
										{
											OFFSET	0.598039 -0.111176 -0.071973
											CHANNELS 3 Zrotation Yrotation Xrotation
											End Site
											{
												OFFSET 0.422025 -0.290925 -0.035981
											}
										}
									}
								}
							}
						}
					}
				}
				JOINT rCollar
				{
					OFFSET	-1.858774 10.237258 -1.915852
					CHANNELS 3 Zrotation Yrotation Xrotation
					JOINT rShldr
					{
						OFFSET	-6.103279 0.000102 -0.038601
						CHANNELS 3 Zrotation Yrotation Xrotation
						JOINT rForeArm
						{
							OFFSET	-10.574100 -0.365985 -0.655940
							CHANNELS 3 Zrotation Yrotation Xrotation
							JOINT rHand
							{
								OFFSET	-13.213392 -0.641131 0.276866
								CHANNELS 3 Zrotation Yrotation Xrotation
								JOINT rIndex1
								{
									OFFSET	-5.093442 -0.710319 1.829884
									CHANNELS 3 Zrotation Yrotation Xrotation
									JOINT rIndex2
									{
										OFFSET	-0.889470 -0.051998 0.127073
										CHANNELS 3 Zrotation Yrotation Xrotation
										JOINT rIndex3
										{
											OFFSET	-0.889570 -0.155981 0.127073
											CHANNELS 3 Zrotation Yrotation Xrotation
											End Site
											{
												OFFSET -0.797115 -0.294470 0.076252
											}
										}
									}
								}
								JOINT rThumb1
								{
									OFFSET	-1.920964 -1.225712 1.722395
									CHANNELS 3 Zrotation Yrotation Xrotation
									JOINT rThumb2
									{
										OFFSET	-0.248544 -0.143036 0.768265
										CHANNELS 3 Zrotation Yrotation Xrotation
										JOINT rThumb3
										{
											OFFSET	-0.628484 -0.225174 0.508305
											CHANNELS 3 Zrotation Yrotation Xrotation
											End Site
											{
												OFFSET -0.831712 -0.207978 0.609962
											}
										}
									}
								}
								JOINT rMid1
								{
									OFFSET	-5.154641 -0.519844 0.864111
									CHANNELS 3 Zrotation Yrotation Xrotation
									JOINT rMid2
									{
										OFFSET	-0.928821 -0.051992 0.050831
										CHANNELS 3 Zrotation Yrotation Xrotation
										JOINT rMid3
										{
											OFFSET	-0.984253 -0.311865 0.050831
											CHANNELS 3 Zrotation Yrotation Xrotation
											End Site
											{
												OFFSET -0.779717 -0.606438 -0.050831
											}
										}
									}
								}
								JOINT rRing1
								{
									OFFSET	-4.924408 -0.754930 -0.235503
									CHANNELS 3 Zrotation Yrotation Xrotation
									JOINT rRing2
									{
										OFFSET	-0.981624 -0.036924 -0.108278
										CHANNELS 3 Zrotation Yrotation Xrotation
										JOINT rRing3
										{
											OFFSET	-0.805613 -0.205247 -0.041717
											CHANNELS 3 Zrotation Yrotation Xrotation
											End Site
											{
												OFFSET -0.667431 -0.470481 -0.035991
											}
										}
									}
								}
								JOINT rPinky1
								{
									OFFSET	-4.535460 -0.816635 -1.006206
									CHANNELS 3 Zrotation Yrotation Xrotation
									JOINT rPinky2
									{
										OFFSET	-0.690596 -0.064334 -0.168800
										CHANNELS 3 Zrotation Yrotation Xrotation
										JOINT rPinky3
										{
											OFFSET	-0.598039 -0.111176 -0.071973
											CHANNELS 3 Zrotation Yrotation Xrotation
											End Site
											{
												OFFSET -0.422025 -0.290925 -0.035981
											}
										}
									}
								}
							}
						}
					}
				}
			}
		}
	}
	JOINT lThigh
	{
		OFFSET	5.761895 -0.730553 0.000101
		CHANNELS 3 Xrotation Zrotation Yrotation
		JOINT lShin
		{
			OFFSET	-1.171020 -18.459274 1.627449
			CHANNELS 3 Xrotation Zrotation Yrotation
			JOINT lFoot
			{
				OFFSET	-0.883715 -16.872776 -3.357785
				CHANNELS 3 Xrotation Zrotation Yrotation
				JOINT lToe
				{
					OFFSET	1.287613 -2.778491 2.836049
					CHANNELS 3 Xrotation Yrotation Zrotation
					End Site
					{
						OFFSET 1.362641 -0.436631 3.828194
					}
				}
			}
		}
	}
	JOINT rThigh
	{
		OFFSET	-5.761895 -0.730553 0.000101
		CHANNELS 3 Xrotation Zrotation Yrotation
		JOINT rShin
		{
			OFFSET	1.171020 -18.459274 1.627449
			CHANNELS 3 Xrotation Zrotation Yrotation
			JOINT rFoot
			{
				OFFSET	0.883715 -16.872776 -3.357785
				CHANNELS 3 Xrotation Zrotation Yrotation
				JOINT rToe
				{
					OFFSET	-1.287613 -2.778491 2.836049
					CHANNELS 3 Xrotation Yrotation Zrotation
					End Site
					{
						OFFSET -1.362641 -0.436631 3.828194
					}
				}
			}
		}
	}
}
MOTION
Frames:     6
Frame Time: 0.033333
-0.012647 39.075241 2.188768 -0.178528 -0.799216 4.234284 -1.523434 -0.123763 -0.151116 -0.942331 1.517067 -3.134821 0.062963 2.329378 -8.853689 0.507811 -0.018115 0.007302 4.962589 0.105662 9.064931 -7.692694 -0.014294 -0.437545 -78.137100 -9.802161 27.513884 0.234279 -26.014698 7.274934 8.539527 10.535354 2.290967 -1.153029 14.868534 16.407560 0.921432 7.972756 2.295831 1.143080 12.883307 2.741511 -20.684204 5.117123 3.210417 -22.190340 0.324221 3.083870 -22.322487 0.027448 2.007340 -21.155315 -0.573979 1.085965 -22.385185 0.037740 1.095536 -22.381083 0.158112 -1.210669 -20.887920 -5.818159 -1.905115 -22.382854 -0.086922 -1.132797 -22.389406 0.110987 -1.034041 -19.361692 -10.332861 -6.696849 -22.252283 -0.278192 -2.620577 -22.354927 0.166944 -1.637562 6.961620 -0.005911 -0.229334 73.501961 -8.377336 21.540806 -0.036700 14.560086 11.268828 -27.289959 -11.432011 1.555419 18.763117 -5.060500 2.947313 25.715698 -0.505628 3.556705 32.550667 -0.321841 2.899639 -6.853165 -20.699158 13.915245 -0.760142 -6.648059 1.901676 -1.522521 -15.800728 3.422143 11.290894 0.679317 0.564356 37.110874 -0.316852 1.780612 19.114019 -0.181267 -1.025260 20.339081 5.790285 -1.855887 36.396065 0.336391 -1.788956 15.940660 -0.136791 -0.728652 32.759342 11.584830 -9.922853 19.150703 0.160807 -2.267643 17.630405 -0.201825 -1.283720 14.759931 -3.837171 2.934028 13.398107 -0.012609 -0.735649 23.638699 6.843613 4.860528 -36.292076 -1.335631 2.742635 -16.993986 4.692015 -6.272062 -14.046886 0.425487 -1.029852 17.902672 0.168386 -6.369085 -9.285562 -2.814854 5.689649 
-0.012647 38.781147 2.188768 0.065290 -1.372216 4.595085 -1.630857 -0.123345 -0.141359 -1.253808 2.569972 -3.455576 0.330182 1.506767 -7.884096 0.253860 0.169919 -0.205368 4.810617 0.161888 7.337238 -7.440148 -0.014017 -0.221167 -77.523209 -9.117101 27.394361 0.258949 -27.045040 7.130722 9.632729 10.546553 2.241003 -1.085579 14.994194 16.464102 0.922729 7.982076 2.298450 1.143080 12.883307 2.741511 -20.540937 5.110415 3.191057 -22.026077 0.317383 3.061696 -22.157164 0.024311 1.992605 -21.008976 -0.576628 1.078401 -22.219381 0.035826 1.087493 -22.215284 0.158662 -1.201679 -20.743326 -5.813393 -1.891716 -22.217060 -0.084727 -1.124709 -22.223549 0.111623 -1.026410 -19.225643 -10.323840 -6.662522 -22.087515 -0.272488 -2.601869 -22.189329 0.168033 -1.625432 7.069279 -0.005809 -0.190943 73.681877 -7.635654 19.520985 -0.069577 13.364862 3.988675 -26.022152 -11.402540 1.606399 19.068758 -5.073563 2.989833 26.063404 -0.523166 3.602616 32.900623 -0.334043 2.929041 -6.910779 -20.805281 13.980194 -0.760142 -6.648059 1.901676 -1.522521 -15.800728 3.422143 11.603129 0.676450 0.581159 37.452164 -0.324921 1.795531 19.455370 -0.181125 -1.043858 20.647551 5.800303 -1.882421 36.737339 0.344898 -1.804032 16.291883 -0.137210 -0.744920 33.049236 11.620574 -9.989385 19.499693 0.170922 -2.307897 17.981108 -0.201537 -1.309566 16.122446 -3.061194 2.946910 15.748047 0.056292 -0.855323 27.219160 4.635240 8.212316 -37.370865 -1.582693 3.037529 -15.478889 5.642228 -5.061094 -12.416815 0.422053 -0.954470 22.821728 -4.490390 -7.145299 -8.648854 -2.861481 5.906575 
-0.012647 38.665810 2.188768 0.700166 -1.744130 4.637204 -1.757810 -0.113171 -0.132019 -1.789456 3.418240 -3.049120 0.630782 0.512686 -6.698215 -0.000225 0.357954 -0.418037 4.515624 0.216253 5.609044 -7.107632 -0.013714 -0.297277 -76.758148 -8.242710 27.353333 0.282220 -27.956663 6.956436 11.016207 10.562065 2.178566 -1.085579 14.994194 16.464102 0.922729 7.982076 2.298450 1.143080 12.883307 2.741511 -20.359470 5.101986 3.166510 -21.823166 0.309025 3.034278 -21.952938 0.020495 1.974391 -20.823614 -0.579956 1.068810 -22.014565 0.033494 1.077549 -22.010479 0.159305 -1.190571 -20.560179 -5.807400 -1.875977 -22.012259 -0.082049 -1.114709 -22.018673 0.112379 -1.016981 -19.053314 -10.312536 -6.617728 -21.883974 -0.265516 -2.578738 -21.984753 0.169331 -1.610445 7.235352 -0.005650 -0.182213 73.847366 -6.829705 16.353024 -0.055461 11.019294 -0.609375 -24.396408 -11.366386 1.674078 19.441256 -5.089786 3.041372 26.488358 -0.544979 3.658476 33.328327 -0.349199 2.964935 -6.910779 -20.805281 13.980194 -0.760142 -6.648059 1.901676 -1.522521 -15.800728 3.422143 11.983661 0.672832 0.601614 37.881210 -0.335192 1.814218 19.894249 -0.180781 -1.067769 21.023499 5.812707 -1.915672 37.166351 0.355720 -1.822911 16.721163 -0.137587 -0.764806 33.402534 11.664585 -10.071330 19.926228 0.183617 -2.356975 18.409744 -0.200971 -1.341152 12.393723 -2.760325 2.927890 24.924152 0.186914 -1.314367 24.448782 3.006997 11.056851 -34.580086 -0.955596 2.266122 -17.999155 6.869494 -6.324779 -3.110911 0.416523 -0.426632 19.258493 -9.518669 -6.579149 -5.321895 -3.065594 7.047447 
-0.012647 38.716541 2.188768 1.833684 -1.646402 4.092007 -1.894530 -0.102579 -0.112921 -2.351703 3.147397 -1.111824 1.089144 0.016667 -5.312501 0.000048 0.202221 -0.334173 4.097203 0.269192 3.880460 -6.763624 -0.013445 -0.646758 -75.944847 -7.270411 27.241884 0.233314 -28.117605 12.719686 12.554543 10.581064 2.108007 -1.085579 14.994194 16.464102 0.922729 7.982076 2.298450 1.143080 12.883307 2.741511 -20.158892 5.092765 3.138477 -21.600922 0.299982 3.004214 -21.729261 0.016391 1.954421 -20.618731 -0.583598 1.058197 -21.790239 0.030981 1.066649 -21.786167 0.159963 -1.178403 -20.357752 -5.800837 -1.858560 -21.787954 -0.079156 -1.103745 -21.794285 0.113168 -1.006650 -18.862841 -10.300186 -6.570295 -21.661045 -0.257974 -2.553332 -21.760704 0.170691 -1.594024 7.397472 -0.005788 -2.409827 74.031982 -5.927278 12.812176 -0.037272 8.971316 -3.031331 -22.548283 -11.327557 1.749761 19.851952 -5.108058 3.097986 26.942265 -0.568735 3.718056 33.794907 -0.366039 3.003898 -6.910779 -20.805281 13.980194 -0.760142 -6.648059 1.901676 -1.522521 -15.800728 3.422143 12.403222 0.668685 0.624140 38.349266 -0.346556 1.834574 20.362381 -0.180212 -1.093269 21.438005 5.826631 -1.951149 37.634373 0.367687 -1.843414 17.189459 -0.137828 -0.786502 33.792065 11.713684 -10.160764 20.391525 0.197882 -2.410404 18.877344 -0.200084 -1.375603 6.295391 -2.986628 4.063666 32.288914 0.228616 -1.652127 23.482697 2.011042 12.538399 -31.018513 -0.213458 1.242628 -19.991613 6.871103 -5.752300 4.409304 0.379712 0.002225 12.810297 -9.378672 -6.983909 -0.132027 -3.250877 8.842842 
-0.012647 38.913422 2.188768 2.166443 -1.055181 3.262709 -2.021483 -0.092404 -0.103580 -2.894995 1.881109 -0.126311 1.526409 0.196337 -3.734393 -0.087829 0.062985 -0.183313 3.564859 0.471562 2.109413 -6.439763 -0.013184 -0.898701 -75.155777 -6.223926 26.778280 0.220702 -26.978289 11.402860 14.209064 10.603542 2.034775 -1.085579 14.994194 16.464102 0.922729 7.982076 2.298450 1.143080 12.883307 2.741511 -19.948771 5.083205 3.109987 -21.369013 0.290669 2.972754 -21.495857 0.012191 1.933571 -20.404097 -0.587373 1.047064 -21.556160 0.028403 1.055263 -21.552099 0.160599 -1.165703 -20.145685 -5.794026 -1.840287 -21.553890 -0.076184 -1.092293 -21.560133 0.113949 -0.995868 -18.672361 -10.287996 -6.521078 -21.428421 -0.250209 -2.526836 -21.526911 0.172041 -1.576884 7.553110 -0.007042 -5.701874 74.237823 -4.941640 9.474171 -0.023257 7.135396 -4.144779 -20.545561 -11.288254 1.834885 20.272192 -5.127173 3.155759 27.434780 -0.595046 3.782388 34.280918 -0.383917 3.044336 -6.910779 -20.805281 13.980194 -0.760142 -6.648059 1.901676 -1.522521 -15.800728 3.422143 12.832538 0.664271 0.647158 38.836815 -0.358570 1.855619 20.850023 -0.179397 -1.119827 21.871796 5.841479 -1.989159 38.121891 0.380330 -1.864666 17.687031 -0.137890 -0.809556 34.190643 11.764539 -10.251800 20.876194 0.213202 -2.465969 19.374172 -0.198834 -1.412165 1.365605 -3.565179 4.352684 36.704849 0.155024 -1.774635 24.188543 1.405969 14.906215 -17.077148 2.025062 -3.112463 -18.780573 6.568735 -6.201222 7.529150 0.327239 0.202789 8.202600 -9.606770 -5.705160 -0.132027 -3.250877 8.842842 
-0.012647 39.194672 2.188768 1.493546 -0.318612 1.957448 -2.128905 -0.082230 -0.094240 -3.339261 0.714742 -0.264145 2.125797 -0.282367 -2.161740 -0.166030 -0.085308 -0.028789 2.968959 1.066483 0.978393 -6.175850 -0.012965 -0.936159 -74.443985 -5.135907 25.698883 0.205812 -24.973530 8.089311 15.921743 10.629016 1.957945 -1.085579 14.994194 16.464102 0.922729 7.982076 2.298450 1.143080 12.883307 2.741511 -19.738642 5.073751 3.080594 -21.127432 0.281105 2.939997 -21.252728 0.007906 1.911834 -20.189461 -0.591107 1.035918 -21.312328 0.025768 1.043393 -21.308281 0.161207 -1.152471 -19.933617 -5.787285 -1.821005 -21.310080 -0.073137 -1.080351 -21.316231 0.114715 -0.984633 -18.463739 -10.274826 -6.469204 -21.186102 -0.242235 -2.499201 -21.283373 0.173373 -1.559024 7.633827 -0.010639 -10.096988 74.539413 -3.914719 8.024807 -0.017568 6.056781 -4.225131 -18.446302 -11.250202 1.925324 20.711531 -5.147609 3.215969 27.927263 -0.621911 3.846590 34.786354 -0.402874 3.086228 -6.910779 -20.805281 13.980194 -0.760142 -6.648059 1.901676 -1.522521 -15.800728 3.422143 13.281364 0.659473 0.671184 39.334110 -0.371008 1.876979 21.357168 -0.178310 -1.147408 22.305588 5.856612 -2.026062 38.619152 0.393411 -1.886230 18.184595 -0.137751 -0.832609 34.607330 11.818371 -10.348324 21.370544 0.229312 -2.522472 19.871000 -0.197266 -1.448748 -6.271604 -4.122557 5.427516 42.785656 0.233686 -1.974391 25.227619 1.687337 15.882030 -13.561250 2.414155 -4.278495 -15.317923 6.322462 -5.717622 8.043854 0.255371 0.273275 5.007610 -9.629460 -4.544491 -0.132027 -3.250877 8.842842 
